HIERARCHY
ROOT root
{
	OFFSET	0	13.1	24.9
	CHANNELS 6  Xposition Yposition Zposition Xrotation Yrotation Zrotation
	JOINT spine_1
	{
		OFFSET	0	9.99999	0
		CHANNELS 3  Xrotation Yrotation Zrotation
		JOINT spine_2
		{
			OFFSET	0	112	-10
			CHANNELS 3  Xrotation Yrotation Zrotation
			JOINT spine_3
			{
				OFFSET	0	206.5	19.3
				CHANNELS 3  Xrotation Yrotation Zrotation
				JOINT spine_4
				{
					OFFSET	0	110.4	14.6
					CHANNELS 3  Xrotation Yrotation Zrotation
					JOINT neck_1
					{
						OFFSET	0	71.8	-50.3
						CHANNELS 3  Xrotation Yrotation Zrotation
						JOINT neck_2
						{
							OFFSET	0	86.2	-25.8
							CHANNELS 3  Xrotation Yrotation Zrotation
							JOINT head_ee
							{
								OFFSET	0	179.8	-8.7
								CHANNELS 3  Xrotation Yrotation Zrotation
								End Site
								{
									OFFSET	1	0	0
								}
							}
						}
					}
					JOINT left_clavicle
					{
						OFFSET	-43.2	22.4	-70.8
						CHANNELS 3  Xrotation Yrotation Zrotation
						JOINT left_shoulder
						{
							OFFSET	-93.9	-5.79999	48.7
							CHANNELS 3  Xrotation Yrotation Zrotation
							JOINT left_elbow
							{
								OFFSET	-291.4	-30.8	15.2
								CHANNELS 3  Xrotation Yrotation Zrotation
								JOINT left_lowarm_twist
								{
									OFFSET	-110.7	-3.89999	13.6
									CHANNELS 3  Xrotation Yrotation Zrotation
									JOINT left_hand
									{
										OFFSET	-110.7	-3.89999	13.6
										CHANNELS 3  Xrotation Yrotation Zrotation
										JOINT left_ee
										{
											OFFSET	-80.8	-5.10001	12.1
											CHANNELS 3  Xrotation Yrotation Zrotation
											End Site
											{
												OFFSET	1	0	0
											}
										}
									}
								}
							}
						}
					}
					JOINT right_clavicle
					{
						OFFSET	43.2	22.4	-70.8
						CHANNELS 3  Xrotation Yrotation Zrotation
						JOINT right_shoulder
						{
							OFFSET	93.9	-5.79999	48.7
							CHANNELS 3  Xrotation Yrotation Zrotation
							JOINT right_elbow
							{
								OFFSET	291.4	-30.8	15.2
								CHANNELS 3  Xrotation Yrotation Zrotation
								JOINT right_lowarm_twist
								{
									OFFSET	110.7	-3.89999	13.6
									CHANNELS 3  Xrotation Yrotation Zrotation
									JOINT right_hand
									{
										OFFSET	110.7	-3.89999	13.6
										CHANNELS 3  Xrotation Yrotation Zrotation
										JOINT right_ee
										{
											OFFSET	80.8	-5.10001	12.1
											CHANNELS 3  Xrotation Yrotation Zrotation
											End Site
											{
												OFFSET	1	0	0
											}
										}
									}
								}
							}
						}
					}
				}
			}
		}
	}
	JOINT left_hip
	{
		OFFSET	-82.8	-127.5	0.300001
		CHANNELS 3  Xrotation Yrotation Zrotation
		JOINT left_knee
		{
			OFFSET	-28.2	-396.7	2.2
			CHANNELS 3  Xrotation Yrotation Zrotation
			JOINT left_ankle
			{
				OFFSET	-11.7	-411.3	35.4
				CHANNELS 3  Xrotation Yrotation Zrotation
				JOINT left_toes
				{
					OFFSET	0	-60	-88.6
					CHANNELS 3  Xrotation Yrotation Zrotation
					JOINT left_foot_ee
					{
						OFFSET	-22.5	-16.5	-42.2
						CHANNELS 3  Xrotation Yrotation Zrotation
						End Site
						{
							OFFSET	1	0	0
						}
					}
				}
			}
		}
	}
	JOINT right_hip
	{
		OFFSET	82.8	-127.5	0.300001
		CHANNELS 3  Xrotation Yrotation Zrotation
		JOINT right_knee
		{
			OFFSET	28.2	-396.7	2.2
			CHANNELS 3  Xrotation Yrotation Zrotation
			JOINT right_ankle
			{
				OFFSET	11.7	-411.3	35.4
				CHANNELS 3  Xrotation Yrotation Zrotation
				JOINT right_toes
				{
					OFFSET	0	-60	-88.6
					CHANNELS 3  Xrotation Yrotation Zrotation
					JOINT right_foot_ee
					{
						OFFSET	22.5	-16.5	-42.2
						CHANNELS 3  Xrotation Yrotation Zrotation
						End Site
						{
							OFFSET	1	0	0
						}
					}
				}
			}
		}
	}
}
MOTION
Frames: 14
Frame Time: 0.02
1372.05 701.618 -1475.22 0.232643456103 62.3112614671 -0.142105272133 -0.00100837 0.0318402 2.14005 0.00153364 -0.10437 2.13775 -0.00134458 -0.551654 2.06801 -0.00724658 -0.218205 2.12914 -8.94273 18.9468 -1.70676 -9.26927 36.7363 2.97775 -0.0 0.0 -0.0 -1.23201 7.27694 -1.33719 8.64922 -3.46382 55.745 2.31599 -48.9166 1.05354 -25.0335 -1.51758 2.79234 0.989203 -28.1022 -5.51764 -0.0 0.0 -0.0 10.6707 27.6189 -20.1851 -27.4506 35.5516 -62.5705 0.195631 5.53538 -0.00945745 13.7468 -0.278015 1.72982 7.55398 -9.40806 -69.5117 0.0 0.0 0.0 -30.0117 32.7003 16.8492 4.60347 -0.216758 -0.672847 33.9761 -9.63723 -4.45534 -38.9334 0.0 0.0 -0.0 0.0 -0.0 33.0066 30.4343 -21.8445 3.63434 0.166633 0.532648 -24.6753 -9.64812 -3.71184 15.2588 -0.0 -0.0 0.0 0.0 0.0 
1342.84423822 703.437 -1474.53554498 0.70379340668 63.6753891943 -0.673904736239 -0.0663832 -0.121135 2.21029 -0.0637033 -0.261501 2.19811 -0.0728048 -0.72069 2.09305 -0.0787158 -0.381171 2.18055 -5.62833 18.1946 -4.72729 -5.27439 37.0761 -1.48945 -0.0 0.0 -0.0 -1.63473 9.99036 -1.6388 8.57195 -3.85351 57.0854 2.2685 -48.3281 1.0179 -27.4009 -1.72143 3.01708 1.3005 -28.7691 -3.83411 -0.0 0.0 -0.0 10.3242 24.7049 -19.7245 -28.4405 37.1867 -62.1511 0.199932 5.6563 -0.00987675 13.5572 -0.277021 1.70564 7.48784 -8.91475 -67.8853 0.0 0.0 0.0 -31.9255 32.281 17.7814 4.49851 -0.211214 -0.657703 31.5693 -9.52461 -4.20527 -38.329 0.0 0.0 -0.0 0.0 -0.0 32.4784 30.599 -21.4868 -0.735169 -0.0295723 -0.108944 -24.7674 -9.16872 -3.72522 14.5917 -0.0 -0.0 0.0 0.0 0.0 
1317.94513309 699.436 -1472.2967523 0.825496398616 63.7965388045 -1.13219421152 -0.0534676 0.124768 2.2066 -0.0507587 -0.0158613 2.21006 -0.0501463 -0.48213 2.15692 -0.0566134 -0.135521 2.20596 -5.0886 17.1588 -6.35607 -4.56962 36.2967 -3.57309 -0.0 0.0 -0.0 -2.08468 11.3862 -2.18581 7.30706 -5.76495 58.3386 2.18876 -47.3085 0.958809 -29.5356 -1.9131 3.21242 1.76814 -28.6471 -0.811954 -0.0 0.0 -0.0 10.1911 23.4076 -19.5506 -26.4185 39.0727 -61.6749 0.199701 5.64981 -0.00985406 13.3387 -0.275777 1.67775 7.44378 -9.13763 -67.2202 0.0 0.0 0.0 -32.5655 32.2079 17.9165 1.24863 -0.0534274 -0.184154 30.1772 -9.15687 -4.04917 -37.9922 0.0 0.0 -0.0 0.0 -0.0 32.7461 30.5668 -21.6885 -3.668 -0.133549 -0.546987 -24.4415 -9.29059 -3.67644 14.4359 -0.0 -0.0 0.0 0.0 0.0 
1317.90470502 699.436 -1473.17817931 0.799160382169 62.8635913277 -1.10272360266 -0.0534676 0.124768 2.2066 -0.0507587 -0.0158613 2.21006 -0.0501463 -0.48213 2.15692 -0.0566134 -0.135521 2.20596 -5.0886 17.1588 -6.35607 -4.56962 36.2967 -3.57309 -0.0 0.0 -0.0 -2.08468 11.3862 -2.18581 7.30706 -5.76495 58.3386 2.18876 -47.3085 0.958809 -29.5356 -1.9131 3.21242 1.76814 -28.6471 -0.811954 -0.0 0.0 -0.0 10.1911 23.4076 -19.5506 -26.4185 39.0727 -61.6749 0.199701 5.64981 -0.00985406 13.3387 -0.275777 1.67775 7.44378 -9.13763 -67.2202 0.0 0.0 0.0 -32.5655 32.2079 17.9165 1.24863 -0.0534274 -0.184154 30.1772 -9.15687 -4.04917 -37.9922 0.0 0.0 -0.0 0.0 -0.0 32.7461 30.5668 -21.6885 -3.668 -0.133549 -0.546987 -24.4415 -9.29059 -3.67644 14.4359 -0.0 -0.0 0.0 0.0 0.0 
1270.4600001 698.466 -1471.34113166 1.8114110591 64.2981644622 -2.47962870561 -0.246478 0.303282 2.33792 -0.24345 0.153942 2.35247 -0.235393 -0.35366 2.33083 -0.242974 0.0187839 2.35742 -5.5612 17.0715 -6.92156 -5.08704 36.5809 -4.00021 -0.0 0.0 -0.0 -3.14048 13.366 -3.60185 5.39962 -7.48209 60.9471 2.04917 -45.424 0.857765 -32.7774 -2.21782 3.49517 2.76411 -28.8321 5.40805 -0.0 0.0 -0.0 10.1855 21.25 -19.7237 -24.4555 40.7987 -61.4025 0.21461 6.06855 -0.0113759 13.5479 -0.27697 1.70444 7.24294 -8.48024 -63.4674 0.0 0.0 0.0 -32.5772 32.4764 16.3648 -3.51332 0.128627 0.523758 27.8213 -8.5451 -3.77729 -36.4425 0.0 0.0 -0.0 0.0 -0.0 31.2048 31.6021 -21.8189 -9.38398 -0.271156 -1.41301 -20.7777 -7.99908 -3.12453 17.3463 -0.0 -0.0 0.0 0.0 0.0 
1270.39478963 698.466 -1473.88137924 1.72251657834 62.8667040561 -2.3803768275 -0.246478 0.303282 2.33792 -0.24345 0.153942 2.35247 -0.235393 -0.35366 2.33083 -0.242974 0.0187839 2.35742 -5.5612 17.0715 -6.92156 -5.08704 36.5809 -4.00021 -0.0 0.0 -0.0 -3.14048 13.366 -3.60185 5.39962 -7.48209 60.9471 2.04917 -45.424 0.857765 -32.7774 -2.21782 3.49517 2.76411 -28.8321 5.40805 -0.0 0.0 -0.0 10.1855 21.25 -19.7237 -24.4555 40.7987 -61.4025 0.21461 6.06855 -0.0113759 13.5479 -0.27697 1.70444 7.24294 -8.48024 -63.4674 0.0 0.0 0.0 -32.5772 32.4764 16.3648 -3.51332 0.128627 0.523758 27.8213 -8.5451 -3.77729 -36.4425 0.0 0.0 -0.0 0.0 -0.0 31.2048 31.6021 -21.8189 -9.38398 -0.271156 -1.41301 -20.7777 -7.99908 -3.12453 17.3463 -0.0 -0.0 0.0 0.0 0.0 
1219.35434298 701.204 -1472.53021806 4.09811851395 64.2354808834 -5.2066495953 -0.272956 0.390659 2.58965 -0.269254 0.225138 2.60924 -0.256771 -0.340086 2.59677 -0.266173 0.0741479 2.61788 -5.20379 15.8054 -7.51899 -4.66864 34.6628 -4.97901 -0.0 0.0 -0.0 -3.74032 15.1705 -4.21747 1.82359 -8.17115 62.9422 1.77165 -41.2672 0.66715 -33.8675 -2.32383 3.58635 2.5854 -27.9828 4.70411 -0.0 0.0 -0.0 10.55 20.2241 -20.6219 -21.6357 41.6233 -61.2928 0.279399 7.8802 -0.019244 13.4822 -0.276606 1.69606 6.96339 -11.2977 -60.7251 0.0 0.0 0.0 -31.8052 32.6712 14.5276 -8.63986 0.258146 1.29957 26.1337 -9.15198 -3.59431 -38.4275 0.0 0.0 -0.0 0.0 -0.0 28.1607 35.9555 -21.6154 -13.2273 -0.314838 -2.001 -12.533 -6.76518 -1.87531 17.5088 -0.0 -0.0 0.0 0.0 0.0 
1190.27360871 709.007 -1469.83767989 8.36420196904 63.7307236268 -10.1617470025 -0.416914 0.576158 2.87757 -0.412393 0.391963 2.90837 -0.389355 -0.24798 2.92415 -0.401221 0.216744 2.92663 -7.45706 15.0383 -6.74779 -7.32131 32.7805 -3.54772 -0.0 0.0 -0.0 -3.76884 15.9542 -4.09573 -0.400882 -9.44188 63.5718 1.60534 -38.4902 0.560489 -34.0474 -2.34149 3.6012 2.85138 -28.589 6.08801 -0.0 0.0 -0.0 11.1441 24.5318 -21.5913 -19.8239 42.1774 -61.69 0.387467 10.8654 -0.0368497 13.974 -0.279099 1.75882 6.66979 -12.7955 -57.3915 0.0 0.0 0.0 -29.9146 32.9131 12.6204 -14.8076 0.321341 2.24336 26.1848 -8.60317 -3.59081 -39.4788 0.0 0.0 -0.0 0.0 -0.0 23.3711 38.3824 -19.9852 -16.8771 -0.319746 -2.56087 -5.80595 -9.16955 -0.859984 19.3596 -0.0 -0.0 0.0 0.0 0.0 
1190.20049205 709.007 -1476.76345633 7.7719711226 61.5699934135 -9.49510531728 -0.416914 0.576158 2.87757 -0.412393 0.391963 2.90837 -0.389355 -0.24798 2.92415 -0.401221 0.216744 2.92663 -7.45706 15.0383 -6.74779 -7.32131 32.7805 -3.54772 -0.0 0.0 -0.0 -3.76884 15.9542 -4.09573 -0.400882 -9.44188 63.5718 1.60534 -38.4902 0.560489 -34.0474 -2.34149 3.6012 2.85138 -28.589 6.08801 -0.0 0.0 -0.0 11.1441 24.5318 -21.5913 -19.8239 42.1774 -61.69 0.387467 10.8654 -0.0368497 13.974 -0.279099 1.75882 6.66979 -12.7955 -57.3915 0.0 0.0 0.0 -29.9146 32.9131 12.6204 -14.8076 0.321341 2.24336 26.1848 -8.60317 -3.59081 -39.4788 0.0 0.0 -0.0 0.0 -0.0 23.3711 38.3824 -19.9852 -16.8771 -0.319746 -2.56087 -5.80595 -9.16955 -0.859984 19.3596 -0.0 -0.0 0.0 0.0 0.0 
1161.4871816 712.954 -1479.33392872 7.89584505299 61.5008520997 -9.69392888805 -0.172694 0.559243 2.86037 -0.168221 0.376175 2.89012 -0.146473 -0.247134 2.90399 -0.158176 0.2144 2.90659 -7.28887 15.433 -6.80778 -7.12715 33.5511 -3.57847 -0.0 0.0 -0.0 -3.945 16.7155 -4.20999 -2.08763 -9.71268 64.8583 1.26514 -32.0746 0.363679 -33.5452 -2.2923 3.5596 2.15029 -28.7889 1.54042 -0.0 0.0 -0.0 11.0536 25.5259 -21.2834 -17.423 43.0746 -62.0815 0.509985 14.1783 -0.0634242 14.3949 -0.280806 1.81256 6.41176 -13.9386 -54.6346 0.0 0.0 0.0 -27.4649 33.2158 11.0894 -19.9497 0.296234 3.03166 28.7599 -7.50878 -3.86464 -39.8998 0.0 0.0 -0.0 0.0 -0.0 17.6348 39.8102 -17.4706 -13.9328 -0.318568 -2.10919 1.93322 -9.20764 0.281591 13.2509 -0.0 -0.0 0.0 0.0 0.0 
1113.25156765 719.945 -1471.54028381 13.1364108723 64.148069057 -16.2972446467 -0.345371 0.693658 3.21022 -0.339771 0.488089 3.2478 -0.308233 -0.223026 3.27666 -0.323091 0.296976 3.27079 -9.47225 15.4218 -6.13225 -9.65774 33.1252 -2.15354 -0.0 0.0 -0.0 -4.81901 18.0172 -5.27511 -4.88672 -11.3938 67.2112 0.918057 -24.4547 0.198953 -34.5691 -2.39297 3.64396 1.963 -28.5034 0.491779 -0.0 0.0 -0.0 11.2106 27.749 -21.3847 -13.8219 43.3659 -62.6337 0.687718 18.8128 -0.113931 15.7058 -0.28359 1.97996 5.83208 -16.9217 -49.1506 0.0 0.0 0.0 -21.5372 33.8097 6.97848 -30.3845 0.0291462 4.60857 33.595 -6.81602 -4.36358 -39.6763 0.0 0.0 -0.0 0.0 -0.0 9.23415 41.6558 -12.9702 -15.1493 -0.321869 -2.29579 13.3344 -5.51357 1.87378 10.4061 -0.0 -0.0 0.0 0.0 0.0 
1089.8681059 719.846 -1474.0388388 13.8369055719 63.9437083046 -17.0850999916 -0.483334 0.686022 3.28091 -0.477472 0.475977 3.31786 -0.445671 -0.258008 3.34186 -0.46115 0.272711 3.34069 -11.7841 15.3296 -5.52335 -12.3038 32.5833 -0.808076 -0.0 0.0 -0.0 -5.04291 18.4261 -5.51959 -6.01485 -12.1419 68.3218 0.780259 -21.1323 0.145547 -34.539 -2.38999 3.64151 1.71221 -27.6806 -0.712858 -0.0 0.0 -0.0 11.4787 28.5371 -21.8919 -11.7843 43.9442 -61.3575 0.778964 21.1003 -0.14508 15.9334 -0.283683 2.00903 5.49019 -17.7256 -46.0209 0.0 0.0 0.0 -18.9612 34.0931 5.54444 -33.9949 -0.129561 5.13974 34.591 -6.29514 -4.45383 -39.6628 0.0 0.0 -0.0 0.0 -0.0 6.49958 39.6306 -11.435 -16.7209 -0.320267 -2.53691 18.3213 -7.64494 2.52053 9.94835 -0.0 -0.0 0.0 0.0 0.0 
1061.48918358 727.806 -1462.92729069 15.0917894251 64.6054753909 -18.1112013069 -0.731403 0.70957 3.17417 -0.725941 0.506259 3.21283 -0.693116 -0.219539 3.24502 -0.707687 0.295432 3.239 -14.1223 13.8537 -3.9855 -14.7861 28.8364 0.854737 -0.0 0.0 -0.0 -4.62025 16.2635 -5.38742 -9.47407 -11.9742 70.7713 0.462803 -12.9126 0.0523725 -32.8681 -2.22657 3.50283 1.14594 -25.0263 -3.13877 -0.0 0.0 -0.0 11.6592 27.8757 -22.3835 -11.078 45.1099 -60.6511 0.994882 26.2352 -0.231844 13.5094 -0.276758 1.69953 3.97696 -19.2985 -33.8407 0.0 0.0 0.0 -11.0982 35.0256 2.67091 -40.5173 -0.500006 6.07054 34.1735 -3.11645 -4.36837 -40.1587 0.0 0.0 -0.0 0.0 -0.0 3.43352 36.8146 -9.65859 -16.7513 -0.320171 -2.54157 15.9073 -6.53862 2.21131 7.87481 -0.0 -0.0 0.0 0.0 0.0 
1038.65402045 729.167 -1465.08082738 15.0704402977 63.9242278003 -17.8777059129 -0.6368 0.769352 3.06528 -0.631755 0.572838 3.10797 -0.596552 -0.125893 3.15776 -0.610271 0.374145 3.13806 -14.8742 12.9135 -3.62622 -15.5083 26.8284 1.04128 -0.0 0.0 -0.0 -4.16852 15.724 -4.78749 -12.1313 -11.8717 72.0315 0.358393 -10.0674 0.0315679 -32.4368 -2.18505 3.46627 0.750188 -22.6328 -4.66424 -0.0 0.0 -0.0 11.7692 27.517 -22.6771 -10.3485 45.5636 -60.1673 1.07008 27.9267 -0.266082 12.5471 -0.27038 1.57679 2.97395 -20.0868 -26.8837 0.0 0.0 0.0 -6.66838 34.257 -0.547199 -46.895 -0.962627 6.93512 37.5423 -2.57291 -4.68205 -39.553 0.0 0.0 -0.0 0.0 -0.0 0.623835 35.7901 -8.22049 -16.2141 -0.321506 -2.45917 14.4051 -5.25164 2.01607 8.27237 -0.0 -0.0 0.0 0.0 0.0 
